<?xml version="1.0" encoding="UTF-8" standalone="no"?>
<svg
   xmlns:dc="http://purl.org/dc/elements/1.1/"
   xmlns:cc="http://creativecommons.org/ns#"
   xmlns:rdf="http://www.w3.org/1999/02/22-rdf-syntax-ns#"
   xmlns:svg="http://www.w3.org/2000/svg"
   xmlns="http://www.w3.org/2000/svg"
   xmlns:sodipodi="http://sodipodi.sourceforge.net/DTD/sodipodi-0.dtd"
   xmlns:inkscape="http://www.inkscape.org/namespaces/inkscape"
   version="1.1"
   id="Calque_1"
   x="0px"
   y="0px"
   width="608"
   height="319.68338"
   viewBox="0 0 570 299.70316"
   enable-background="new 0 0 100 100"
   xml:space="preserve"
   inkscape:version="0.92.1 r15371"
   sodipodi:docname="ods.svg"><metadata
     id="metadata45"><rdf:RDF><cc:Work
         rdf:about=""><dc:format>image/svg+xml</dc:format><dc:type
           rdf:resource="http://purl.org/dc/dcmitype/StillImage" /></cc:Work></rdf:RDF></metadata><defs
     id="defs43" /><sodipodi:namedview
     pagecolor="#ffffff"
     bordercolor="#666666"
     borderopacity="1"
     objecttolerance="10"
     gridtolerance="10"
     guidetolerance="10"
     inkscape:pageopacity="0"
     inkscape:pageshadow="2"
     inkscape:window-width="1920"
     inkscape:window-height="1027"
     id="namedview41"
     showgrid="false"
     fit-margin-top="0"
     fit-margin-left="0"
     fit-margin-right="0"
     fit-margin-bottom="0"
     inkscape:zoom="1.18"
     inkscape:cx="263.70489"
     inkscape:cy="135.09126"
     inkscape:window-x="1272"
     inkscape:window-y="-8"
     inkscape:window-maximized="1"
     inkscape:current-layer="Calque_1" /><g
     id="g3"
     transform="matrix(2.1110888,0,0,2.1110888,179.44452,-5.3600545)"><polygon
       points="9.007,62.299 9.007,47.49 2.804,47.49 2.804,50.671 5.226,50.671 5.226,62.299 "
       id="polygon5"
       transform="translate(0,15.098842)" /><polygon
       points="27.707,50.671 30.128,50.671 30.128,62.299 33.91,62.299 33.91,47.49 27.707,47.49 "
       id="polygon7"
       transform="translate(0,15.098842)" /><polygon
       points="16.171,68.307 18.592,68.307 18.592,79.933 22.374,79.933 22.374,65.123 16.171,65.123 "
       id="polygon9"
       transform="translate(0,15.098842)" /><polygon
       points="16.171,85.554 18.592,85.554 18.592,97.18 22.374,97.18 22.374,82.37 16.171,82.37 "
       id="polygon11"
       transform="translate(0,15.098842)" /><polygon
       points="27.707,68.307 30.128,68.307 30.128,79.933 33.91,79.933 33.91,65.123 27.707,65.123 "
       id="polygon13"
       transform="translate(0,15.098842)" /><path
       d="m 21.594,62.786839 c -0.701,-0.3 -1.5,-0.48 -2.262,-0.48 -0.76,0 -1.52,0.161 -2.241,0.442 -2.241,0.899 -3.342,2.799 -3.342,5.182 v 4.121 c 0,2.363 1.121,4.244 3.322,5.164 0.72,0.302 1.48,0.46 2.261,0.46 0.841,0 1.681,-0.182 2.441,-0.539 2.082,-0.96 3.022,-2.863 3.022,-5.085 v -4.121 c 0,-2.321 -1.04,-4.202 -3.201,-5.144 z m -0.581,9.368 c 0,1.159 -0.38,2.198 -1.741,2.198 -1.301,0 -1.741,-1.06 -1.741,-2.198 v -4.323 c 0,-1.122 0.44,-2.202 1.741,-2.202 1.361,0 1.741,1.04 1.741,2.202 z"
       id="path15"
       inkscape:connector-curvature="0" /><polygon
       points="89.854,68.307 92.277,68.307 92.277,79.933 96.059,79.933 96.059,65.123 89.854,65.123 "
       id="polygon17"
       transform="translate(0,15.098842)" /><polygon
       points="89.854,85.554 92.277,85.554 92.277,97.18 96.059,97.18 96.059,82.37 89.854,82.37 "
       id="polygon19"
       transform="translate(0,15.098842)" /><path
       d="m 95.278,62.786839 c -0.7,-0.3 -1.501,-0.48 -2.261,-0.48 -0.76,0 -1.521,0.161 -2.242,0.442 -2.241,0.899 -3.341,2.799 -3.341,5.182 v 4.121 c 0,2.363 1.121,4.244 3.322,5.164 0.72,0.302 1.479,0.46 2.261,0.46 0.84,0 1.68,-0.182 2.441,-0.539 2.082,-0.96 3.021,-2.863 3.021,-5.085 v -4.121 c 0,-2.321 -1.041,-4.202 -3.201,-5.144 z m -0.581,9.368 c 0,1.159 -0.38,2.198 -1.741,2.198 -1.301,0 -1.739,-1.06 -1.739,-2.198 v -4.323 c 0,-1.122 0.438,-2.202 1.739,-2.202 1.361,0 1.741,1.04 1.741,2.202 z"
       id="path21"
       inkscape:connector-curvature="0" /><polygon
       points="73.262,79.933 73.262,65.123 67.06,65.123 67.06,68.307 69.48,68.307 69.48,79.933 "
       id="polygon23"
       transform="translate(0,15.098842)" /><polygon
       points="78.595,68.307 81.016,68.307 81.016,79.933 84.799,79.933 84.799,65.123 78.595,65.123 "
       id="polygon25"
       transform="translate(0,15.098842)" /><path
       d="m 72.482,97.669839 c -0.701,-0.298 -1.5,-0.479 -2.261,-0.479 -0.762,0 -1.522,0.159 -2.241,0.44 -2.241,0.9 -3.344,2.801001 -3.344,5.181011 v 4.12401 c 0,2.36001 1.122,4.24402 3.323,5.16402 0.719,0.299 1.48,0.46 2.262,0.46 0.841,0 1.68,-0.182 2.439,-0.542 2.082,-0.96 3.022,-2.86001 3.022,-5.08202 v -4.12401 c 0.002,-2.32001 -1.038,-4.198011 -3.2,-5.142011 z m -0.581,9.366021 c 0,1.16201 -0.379,2.20101 -1.741,2.20101 -1.3,0 -1.739,-1.06 -1.739,-2.20101 v -4.32001 c 0,-1.12201 0.439,-2.20401 1.739,-2.20401 1.362,0 1.741,1.043 1.741,2.20401 z"
       id="path27"
       inkscape:connector-curvature="0" /><path
       d="m 8.228,80.422839 c -0.701,-0.301 -1.501,-0.479 -2.263,-0.479 -0.76,0 -1.52,0.158 -2.239,0.439 -2.242,0.9 -3.343,2.801 -3.343,5.185 v 4.121 c 0,2.36 1.121,4.241 3.322,5.164 0.721,0.298 1.481,0.457 2.26,0.457 0.842,0 1.682,-0.179 2.441,-0.539 2.082,-0.961 3.022,-2.86 3.022,-5.082 v -4.121 c 10e-4,-2.324 -1.04,-4.204 -3.2,-5.145 z m -0.582,9.365 c 0,1.162 -0.38,2.201 -1.741,2.201 -1.3,0 -1.74,-1.062 -1.74,-2.201 v -4.323 c 0,-1.119 0.44,-2.198 1.74,-2.198 1.361,0 1.741,1.039 1.741,2.198 z"
       id="path29"
       inkscape:connector-curvature="0" /><polygon
       points="46.418,62.299 46.418,47.49 40.215,47.49 40.215,50.671 42.637,50.671 42.637,62.299 "
       id="polygon31"
       transform="translate(0,15.098842)" /><polygon
       points="53.582,68.307 56.004,68.307 56.004,79.933 59.785,79.933 59.785,65.123 53.582,65.123 "
       id="polygon33"
       transform="translate(0,15.098842)" /><polygon
       points="53.582,85.554 56.004,85.554 56.004,97.18 59.785,97.18 59.785,82.37 53.582,82.37 "
       id="polygon35"
       transform="translate(0,15.098842)" /><path
       d="m 45.639,80.422839 c -0.702,-0.301 -1.501,-0.479 -2.263,-0.479 -0.76,0 -1.52,0.158 -2.24,0.439 -2.242,0.9 -3.342,2.801 -3.342,5.185 v 4.121 c 0,2.36 1.121,4.241 3.322,5.164 0.721,0.298 1.481,0.457 2.26,0.457 0.842,0 1.682,-0.179 2.441,-0.539 2.082,-0.961 3.022,-2.86 3.022,-5.082 v -4.121 c 0.001,-2.324 -1.04,-4.204 -3.2,-5.145 z m -0.581,9.365 c 0,1.162 -0.38,2.201 -1.741,2.201 -1.3,0 -1.74,-1.062 -1.74,-2.201 v -4.323 c 0,-1.119 0.44,-2.198 1.74,-2.198 1.361,0 1.741,1.039 1.741,2.198 z"
       id="path37"
       inkscape:connector-curvature="0" /><path
       d="m 81.751,59.855839 1.139,10e-4 11.635,0.021 0.425,-0.427 c 2.887,-3.004 4.668,-7.079 4.668,-11.563 0,-8.235 -5.993,-15.094 -13.842,-16.455 -0.017,-0.003 -0.033,-0.006 -0.051,-0.007 -1.388,-7.823999 -8.229,-13.787997 -16.444,-13.787997 -7.739,0 -14.262,5.291998 -16.151,12.446997 -2.866,-2.308 -6.503,-3.694 -10.459,-3.694 -8.319,0 -15.236,6.114 -16.499,14.085 -2.616,-1.703 -5.735,-2.697 -9.083,-2.697 -9.211,0 -16.706,7.495 -16.706,16.705 0,1.814 0.294,3.562 0.832,5.197 l 10e-4,0.018 h 0.006 l 5.785,0.01 20.144,0.04 5.785,0.011 7.922,0.017 0.911,10e-4 c 0.298,0.016 0.6,0.024 0.902,0.024 v -0.024 l 1.811,0.004 c 0.014,-0.003 0.029,-0.004 0.044,-0.006 l 6.111,0.016 c 0.559,1.433 1.316,2.764 2.228,3.975 -1.134,1.021 -1.704,2.466 -1.704,4.164 v 4.121 c 0,2.363 1.121,4.244 3.322,5.164 0.72,0.302 1.479,0.46 2.261,0.46 0.841,0 1.682,-0.182 2.441,-0.539 2.081,-0.96 3.021,-2.863 3.021,-5.085 v -2.088 c 0.79,0.195 1.602,0.33 2.431,0.408 v 1.68 c 0,2.363 1.122,4.244 3.323,5.164 0.719,0.302 1.48,0.46 2.262,0.46 0.841,0 1.68,-0.182 2.439,-0.539 2.082,-0.96 3.022,-2.863 3.022,-5.085 v -4.558 c 0.747,-0.517 1.445,-1.097 2.098,-1.725 h 3.234 v 11.628 h 3.783 v -14.808 h -4.441 c 0.541,-0.864 1.016,-1.773 1.394,-2.733 z m -51.28,-5.319 -2.021,-0.003 -22.721,-0.045 c 0,-10e-4 0,-0.004 0,-0.007 0,-6.265 5.097,-11.362 11.361,-11.362 4.293,0 8.036,2.396 9.967,5.916 -0.009,-0.025 -0.018,-0.051 -0.026,-0.078 0.786,2.09 1.981,3.982 3.487,5.58 h -0.047 z m 27.954,17.618 c 0,1.159 -0.381,2.198 -1.741,2.198 -1.301,0 -1.741,-1.06 -1.741,-2.198 v -4.323 c 0,-0.536 0.104,-1.059 0.352,-1.463 0.956,0.828 2.005,1.55 3.131,2.146 v 3.64 z m 13.476,0 c 0,1.159 -0.379,2.198 -1.741,2.198 -1.3,0 -1.739,-1.06 -1.739,-2.198 v -1.858 c 1.206,-0.16 2.37,-0.451 3.48,-0.855 z m -5.693,-7.051 c -5.985,0 -10.896,-4.647 -11.328,-10.521 0,0 0,0 0,-0.003 -0.003,-0.021 -0.006,-0.04 -0.006,-0.061 l -5.354,-0.011 c 10e-4,0.02 0.003,0.042 0.005,0.064 l -7.441,-0.017 c -5.993,-0.312 -10.774,-5.396 -10.774,-11.464 0.001,-6.259 5.097,-11.354 11.363,-11.354 6.265,0 11.361,5.094 11.361,11.36 h 5.345 c 0,-0.312 -0.012,-0.621 -0.027,-0.927 -0.005,-0.088 -0.016,-0.178 -0.021,-0.264 -0.016,-0.223 -0.033,-0.446 -0.059,-0.667 -0.01,-0.083 -0.021,-0.163 -0.031,-0.244 -0.031,-0.243 -0.064,-0.483 -0.105,-0.721 -0.007,-0.042 -0.014,-0.083 -0.02,-0.124 -0.153,-0.833 -0.362,-1.647 -0.632,-2.436 l -0.559,-3.372 c 0,-6.265 5.095,-11.361999 11.36,-11.361999 5.282,0 9.73,3.622999 11,8.513999 0.015,-0.003 0.032,-0.005 0.05,-0.007 0.22,0.877 0.338,1.798 0.338,2.745 0,0.886 -0.105,1.751 -0.3,2.579 0.815,-0.185 1.668,-0.288 2.542,-0.288 0.997,0 1.966,0.13 2.887,0.374 4.871,1.281 8.473,5.721 8.473,10.987 0,2.534 -0.835,4.877 -2.244,6.77 l -14.512,-0.018 c 0.004,0.011 0.012,0.022 0.015,0.033 -0.092,1.238 -0.378,2.34 -0.837,3.437 -1.714,4.103 -5.771,6.998 -10.489,6.998 z"
       id="path39"
       inkscape:connector-curvature="0" /></g><text
     xml:space="preserve"
     style="font-style:normal;font-weight:normal;line-height:0%;font-family:sans-serif;letter-spacing:0px;word-spacing:0px;fill:#000000;fill-opacity:1;stroke:none"
     x="-5.5105205"
     y="280.82849"
     id="text3022"><tspan
       sodipodi:role="line"
       id="tspan3024"
       x="-5.5105205"
       y="280.82849"
       style="font-style:normal;font-variant:normal;font-weight:normal;font-stretch:normal;font-size:60.35051346px;line-height:1.25;font-family:'Courier New';-inkscape-font-specification:'Courier New'">#opendatasicilia</tspan></text>
</svg>